<svg width="18" height="14" viewBox="0 0 18 14" fill="none" xmlns="http://www.w3.org/2000/svg">
<path d="M12.2663 0.996535L13.4895 3.44286C13.6543 3.78119 14.0967 4.10216 14.4698 4.17156L16.6819 4.5359C18.0959 4.77013 18.4255 5.79377 17.4106 6.81741L15.6843 8.54372C15.398 8.82999 15.2332 9.39386 15.3286 9.80158L15.8231 11.9356C16.2134 13.6186 15.3112 14.2778 13.8278 13.393L11.7545 12.1612C11.3815 11.9356 10.7569 11.9356 10.3839 12.1612L8.31058 13.393C6.82716 14.2692 5.92497 13.6186 6.31534 11.9356L6.80981 9.80158C6.88789 9.38519 6.72306 8.82132 6.43679 8.53505L4.71048 6.80874C3.69552 5.79377 4.02516 4.77013 5.43918 4.52723L7.65128 4.16288C8.0243 4.10216 8.46672 3.77251 8.63155 3.43419L9.85471 0.98786C10.5227 -0.330729 11.5984 -0.330729 12.2663 0.996535Z" fill="#FFBF00"/>
<path d="M5.85558 1.46491H0.650619C0.294948 1.46491 0 1.16996 0 0.814291C0 0.458619 0.294948 0.163671 0.650619 0.163671H5.85558C6.21125 0.163671 6.50619 0.458619 6.50619 0.814291C6.50619 1.16996 6.21125 1.46491 5.85558 1.46491Z" fill="#FFBF00"/>
<path d="M3.2531 13.6099H0.650619C0.294947 13.6099 0 13.3149 0 12.9593C0 12.6036 0.294947 12.3087 0.650619 12.3087H3.2531C3.60877 12.3087 3.90372 12.6036 3.90372 12.9593C3.90372 13.3149 3.60877 13.6099 3.2531 13.6099Z" fill="#FFBF00"/>
<path d="M1.51811 7.5374H0.650619C0.294948 7.5374 0 7.24245 0 6.88678C0 6.53111 0.294948 6.23616 0.650619 6.23616H1.51811C1.87378 6.23616 2.16873 6.53111 2.16873 6.88678C2.16873 7.24245 1.87378 7.5374 1.51811 7.5374Z" fill="#FFBF00"/>
</svg>
