<svg width="30" height="30" viewBox="0 0 30 30" fill="none" xmlns="http://www.w3.org/2000/svg">
<g clip-path="url(#clip0_1_56)">
<g clip-path="url(#clip1_1_56)">
<path d="M14.9996 -0.0317383C6.71117 -0.0317383 -0.0332031 6.71076 -0.0332031 15.0001C-0.0332031 23.2895 6.71117 30.032 14.9996 30.032C23.288 30.032 30.0324 23.2895 30.0324 15.0001C30.0324 6.71076 23.288 -0.0317383 14.9996 -0.0317383ZM14.9996 29.0308C7.26336 29.0308 0.969922 22.7364 0.969922 15.0001C0.969922 7.26389 7.26336 0.969512 14.9996 0.969512C22.7359 0.969512 29.0293 7.26389 29.0293 15.0001C29.0293 22.7364 22.7359 29.0308 14.9996 29.0308Z" fill="#00E5CC"/>
<path d="M23.2429 10.3555C23.3469 10.163 23.4326 9.96121 23.4989 9.75271C23.5295 9.65599 23.5302 9.55225 23.5006 9.45517C23.4711 9.3581 23.4129 9.27226 23.3335 9.20898C23.2542 9.14571 23.1576 9.10799 23.0564 9.10078C22.9552 9.09358 22.8542 9.11724 22.7667 9.16864C22.2863 9.45402 21.7663 9.66665 21.2236 9.79958C20.5647 9.20499 19.7091 8.87537 18.8217 8.87427C18.3395 8.87464 17.8624 8.97236 17.419 9.16158C16.9755 9.35079 16.5748 9.6276 16.2409 9.97541C15.907 10.3232 15.6468 10.7349 15.4759 11.1857C15.3049 11.6365 15.2267 12.1172 15.2461 12.599C13.1376 12.3335 11.2123 11.2666 9.8695 9.61958C9.81805 9.55718 9.7523 9.50812 9.67783 9.47657C9.60337 9.44502 9.52238 9.43191 9.44177 9.43835C9.36115 9.4448 9.28328 9.4706 9.21477 9.51358C9.14626 9.55655 9.08913 9.61543 9.04825 9.68521C8.74077 10.2129 8.57364 10.8107 8.56281 11.4214C8.55198 12.032 8.6978 12.6353 8.98637 13.1736C8.9156 13.1856 8.84761 13.2104 8.78575 13.2468C8.70995 13.2951 8.64754 13.3618 8.60428 13.4406C8.56103 13.5194 8.53832 13.6078 8.53825 13.6977C8.53825 14.7618 9.01168 15.7386 9.77481 16.4024L9.742 16.4352C9.68438 16.5004 9.64475 16.5794 9.62699 16.6646C9.60924 16.7498 9.61398 16.8381 9.64075 16.9208C9.79988 17.4173 10.0656 17.8729 10.4193 18.2559C10.7729 18.6389 11.206 18.9399 11.6882 19.138C10.6979 19.6212 9.58952 19.8096 8.49512 19.6808C8.38263 19.6694 8.26951 19.6955 8.17348 19.7553C8.07746 19.815 8.00396 19.9049 7.9645 20.0108C7.9266 20.1176 7.92589 20.234 7.96248 20.3412C7.99907 20.4484 8.07081 20.5401 8.16606 20.6015C9.65388 21.5563 11.3847 22.0637 13.1526 22.063C18.9464 22.063 22.4095 17.3568 22.4095 12.8071L22.4086 12.6533C22.9701 12.215 23.4578 11.6896 23.8532 11.0971C23.9131 11.0075 23.9426 10.901 23.9372 10.7934C23.9319 10.6858 23.892 10.5828 23.8236 10.4996C23.7551 10.4164 23.6616 10.3575 23.5571 10.3315C23.4525 10.3056 23.3424 10.314 23.2429 10.3555ZM21.607 12.0008C21.539 12.0497 21.4843 12.1149 21.4479 12.1904C21.4116 12.2659 21.3947 12.3493 21.3989 12.433C21.4045 12.5568 21.4073 12.6824 21.4073 12.8061C21.4073 16.8636 18.3201 21.0608 13.1536 21.0608C12.2321 21.0613 11.3171 20.9066 10.447 20.6033C11.4891 20.4036 12.4681 19.9567 13.3017 19.3002C13.3828 19.2362 13.4422 19.1487 13.4718 19.0497C13.5013 18.9507 13.4995 18.845 13.4667 18.747C13.4339 18.649 13.3716 18.5636 13.2884 18.5023C13.2051 18.4411 13.105 18.4071 13.0017 18.4049C12.5975 18.3972 12.2007 18.2946 11.8434 18.1053C11.4861 17.9161 11.1783 17.6456 10.9448 17.3155C11.182 17.2996 11.4145 17.2602 11.6404 17.1993C11.7498 17.17 11.846 17.1045 11.9133 17.0136C11.9807 16.9226 12.0152 16.8115 12.0113 16.6983C12.0074 16.5852 11.9653 16.4768 11.8918 16.3907C11.8183 16.3046 11.7178 16.2459 11.6067 16.2243C11.1501 16.1314 10.7274 15.9162 10.3838 15.6016C10.0401 15.287 9.78849 14.8849 9.65575 14.4383C9.90512 14.5011 10.1611 14.5377 10.417 14.5461C10.6373 14.5452 10.8417 14.4102 10.9101 14.1983C10.9786 13.9865 10.8979 13.753 10.7114 13.6293C10.2703 13.3354 9.93061 12.9125 9.73882 12.4183C9.54703 11.9242 9.51246 11.3829 9.63981 10.8683C11.2683 12.5392 13.4672 13.5343 15.7973 13.6546C15.9623 13.6555 16.1067 13.5965 16.207 13.4755C16.3073 13.3546 16.3457 13.1943 16.3101 13.0405C16.1819 12.4883 16.2393 11.9093 16.4733 11.393C16.7073 10.8767 17.105 10.4519 17.6048 10.1844C18.1046 9.91686 18.6786 9.82154 19.2381 9.91315C19.7975 10.0048 20.3111 10.2782 20.6995 10.6911C20.7577 10.7532 20.8308 10.7995 20.9118 10.8256C20.9928 10.8517 21.0791 10.8567 21.1626 10.8402C21.3173 10.8093 21.4701 10.7736 21.6211 10.7324C21.553 10.7833 21.4823 10.8306 21.4092 10.874C21.312 10.9335 21.2379 11.0244 21.1993 11.1317C21.1607 11.2389 21.1597 11.3561 21.1966 11.464C21.2335 11.5719 21.3061 11.664 21.4023 11.7251C21.4985 11.7862 21.6127 11.8127 21.7261 11.8002L21.8967 11.7786C21.8027 11.856 21.7061 11.9301 21.607 12.0008Z" fill="#00E5CC"/>
<path d="M13 18.9998C13.4 19.7998 11.0005 20.3331 10.0005 20.4998C14.0001 22.4998 18.5002 19.6664 20.0005 17.9998V17.4998C21.6005 16.6998 21.6671 13.8331 21.5005 12.4998L22.5005 11.9998L22.0005 10.9998L21.5005 10.4998L18.5005 9.49976L17.5005 9.99976L16.5005 10.9998L16.0005 11.9998V13.4998C13.6005 13.8998 10.6668 11.6664 9.5 10.4998C8.7 11.2998 9.5 12.8331 10 13.4998L9.5 13.9998V14.9998C10.1667 15.4998 10.9005 16.5998 10.5005 16.9998C10.1005 17.3998 12.1667 18.4998 13 18.9998Z" fill="#00E5CC"/>
</g>
</g>
<defs>
<clipPath id="clip0_1_56">
<rect width="30" height="30" fill="white"/>
</clipPath>
<clipPath id="clip1_1_56">
<rect width="30" height="30" fill="white"/>
</clipPath>
</defs>
</svg>
