<svg width="34" height="34" viewBox="0 0 34 34" fill="none" xmlns="http://www.w3.org/2000/svg">
<g clip-path="url(#clip0_1_2714)">
<path d="M33.7344 3.03112C33.5808 2.92082 33.3809 2.89864 33.2068 2.97248L3.51705 14.9539L-3.903e-05 16.4135L10.6273 20.716H10.6391V20.7218L13.482 30.6458C13.5393 30.8456 13.6981 31.0001 13.8994 31.052C14.1007 31.1037 14.3143 31.0451 14.461 30.8978L20.3814 24.8426L28.3709 27.9845C28.7002 28.1191 29.0731 28.0948 29.3821 27.9186C29.6911 27.7424 29.9018 27.4338 29.9536 27.0819L33.9865 3.6407C34.0384 3.40477 33.9378 3.16147 33.7344 3.03112ZM16.5184 23.2717L16.5301 23.2307L16.5477 23.2365L16.5184 23.2717Z" fill="white"/>
<path d="M20.3814 24.8426L14.461 30.8978C14.53 30.8227 14.5803 30.7323 14.6076 30.6341L16.5185 23.2717L16.5478 23.2365L19.0918 24.3034L20.229 24.784L20.3814 24.8426Z" fill="white"/>
<path d="M33.7776 3.06258L16.5476 23.2364L16.53 23.2306L16.5182 23.2716L14.6073 30.6339C14.58 30.7322 14.5298 30.8226 14.4607 30.8977C14.3141 31.045 14.1004 31.1036 13.8991 31.0518C13.6979 31 13.5391 30.8454 13.4818 30.6456L10.6388 20.7217V20.7158H10.633V20.71L33.7776 3.06258Z" fill="#E2FFFC"/>
</g>
<defs>
<clipPath id="clip0_1_2714">
<rect width="33.2308" height="33.2308" fill="white" transform="scale(1.02315)"/>
</clipPath>
</defs>
</svg>
