<svg width="126" height="66" viewBox="0 0 126 66" fill="none" xmlns="http://www.w3.org/2000/svg">
<rect width="126" height="66" rx="10" fill="white"/>
<rect x="118" y="58" width="50" height="50" rx="8" transform="rotate(180 118 58)" fill="#00E5CC"/>
<path d="M90 24.33C90.19 24.33 90.38 24.4 90.53 24.55L97.05 31.07C98.11 32.13 98.11 33.87 97.05 34.93L90.53 41.45C90.24 41.74 89.76 41.74 89.47 41.45C89.18 41.16 89.18 40.68 89.47 40.39L95.99 33.87C96.47 33.39 96.47 32.61 95.99 32.13L89.47 25.61C89.18 25.32 89.18 24.84 89.47 24.55C89.62 24.41 89.81 24.33 90 24.33Z" fill="white"/>
<path d="M36 24.33C35.81 24.33 35.62 24.4 35.47 24.55L28.95 31.07C27.89 32.13 27.89 33.87 28.95 34.93L35.47 41.45C35.76 41.74 36.24 41.74 36.53 41.45C36.82 41.16 36.82 40.68 36.53 40.39L30.01 33.87C29.53 33.39 29.53 32.61 30.01 32.13L36.53 25.61C36.82 25.32 36.82 24.84 36.53 24.55C36.38 24.41 36.19 24.33 36 24.33Z" fill="#9090A7"/>
</svg>
